<svg width="89" height="82" viewBox="0 0 89 82" fill="none" xmlns="http://www.w3.org/2000/svg">
<g clip-path="url(#clip0)">
<path fill-rule="evenodd" clip-rule="evenodd" d="M18.4856 0.0108643C13.4074 0.0108643 9.64972 5.15042 9.81799 10.7241C9.97947 16.0789 9.76966 23.0142 8.25979 28.6699C6.74453 34.3415 4.1837 37.9356 0 38.3969V43.6052C4.1837 44.0675 6.74453 47.6598 8.25962 53.3322C9.76966 58.9879 9.9793 65.9232 9.81781 71.278C9.64955 76.8509 13.4072 81.9912 18.4863 81.9912H70.5212C75.5994 81.9912 79.3564 76.8517 79.1881 71.278C79.0266 65.9232 79.2364 58.9879 80.7463 53.3322C82.2616 47.6598 84.8161 44.0661 89 43.6052V38.3969C84.8163 37.9346 82.2617 34.3424 80.7463 28.6699C79.2363 23.015 79.0266 16.0789 79.1881 10.7241C79.3564 5.15122 75.5994 0.0108643 70.5212 0.0108643H18.4849H18.4856ZM60.339 50.4752C60.339 58.1499 55.3882 62.8045 47.1723 62.8045H33.1864C32.7863 62.8045 32.4026 62.6207 32.1197 62.2936C31.8368 61.9665 31.6779 61.5228 31.6779 61.0602V20.9421C31.6779 20.4795 31.8368 20.0359 32.1197 19.7087C32.4026 19.3816 32.7863 19.1979 33.1864 19.1979H47.0926C53.9434 19.1979 58.4395 23.4888 58.4395 30.0767C58.4395 34.7007 55.4148 38.8403 51.5616 39.5655V39.8067C56.807 40.472 60.339 44.6729 60.339 50.4752ZM45.6473 24.7271H37.6727V37.7519H44.3893C49.5815 37.7519 52.4445 35.3343 52.4445 31.013C52.4439 26.9633 49.9825 24.7271 45.6473 24.7271ZM37.6727 42.9198V57.2734H45.9407C51.3467 57.2734 54.2102 54.7651 54.2102 50.0512C54.2102 45.3374 51.2664 42.919 45.593 42.919H37.6727V42.9198Z" fill="#7952B3"/>
</g>
<defs>
<clipPath id="clip0">
<rect width="89" height="82" fill="white"/>
</clipPath>
</defs>
</svg>
