<svg width="65" height="82" viewBox="0 0 65 82" fill="none" xmlns="http://www.w3.org/2000/svg">
<g clip-path="url(#clip0)">
<path d="M16.2532 82C25.2214 82 32.5 75.8774 32.5 68.3334V54.6667H16.2532C7.28501 54.6667 0.00646973 60.7894 0.00646973 68.3334C0.00646973 75.8774 7.28501 82 16.2532 82Z" fill="#0ACF83"/>
<path d="M0.00646973 41C0.00646973 33.456 7.28501 27.3333 16.2532 27.3333H32.5V54.6666H16.2532C7.28501 54.6666 0.00646973 48.544 0.00646973 41Z" fill="#A259FF"/>
<path d="M0.00701904 13.6667C0.00701904 6.12267 7.28556 0 16.2538 0H32.5005V27.3333H16.2538C7.28556 27.3333 0.00701904 21.2107 0.00701904 13.6667Z" fill="#F24E1E"/>
<path d="M32.5 0H48.7468C57.715 0 64.9935 6.12267 64.9935 13.6667C64.9935 21.2107 57.715 27.3333 48.7468 27.3333H32.5V0Z" fill="#FF7262"/>
<path d="M64.9935 41C64.9935 48.544 57.715 54.6666 48.7468 54.6666C39.7785 54.6666 32.5 48.544 32.5 41C32.5 33.456 39.7785 27.3333 48.7468 27.3333C57.715 27.3333 64.9935 33.456 64.9935 41Z" fill="#1ABCFE"/>
</g>
<defs>
<clipPath id="clip0">
<rect width="65" height="82" fill="white"/>
</clipPath>
</defs>
</svg>
