<svg width="1024" height="234" viewBox="0 0 1024 234" fill="none" xmlns="http://www.w3.org/2000/svg">
<rect width="1024" height="234" fill="#383838"/>
<g style="mix-blend-mode:color-burn">
<path d="M1044.59 198.518C1044.16 199.363 1043.71 200.194 1043.24 201.019C1025.39 232.625 983.876 252.254 913.858 241.865C874.102 235.686 857.171 258.351 840.776 281.566C840.496 281.967 840.216 282.368 839.931 282.768C822.762 307.114 805.765 331.527 763.264 323.411C718.207 316.17 690.401 278.984 686.098 239.282C686.045 238.799 685.998 238.312 685.955 237.829C683.538 212.089 691.008 185.436 710.067 165.315C721.579 153.164 737.936 146.709 754.819 146.912C759.903 147.008 764.984 146.625 769.998 145.768C771.105 145.57 772.178 145.353 773.223 145.107C794.732 140.11 804.644 125.256 810.723 107.128C810.866 106.699 811.008 106.269 811.146 105.835C825.104 62.6041 818.649 1.92684 894.533 10.853C962.438 15.9412 1012.27 54.2138 1036.72 98.3713C1036.96 98.8154 1037.2 99.2595 1037.44 99.7037C1044.16 111.956 1048.95 125.2 1051.65 138.956C1051.8 139.729 1051.94 140.501 1052.07 141.274C1055.52 161.781 1053.26 181.714 1044.59 198.518Z" fill="#F2F2F2"/>
<path d="M1037.44 99.7037C1032.57 105.589 1027.08 110.916 1021.07 115.591C997.659 133.839 968.009 143.736 938.758 145.811C923.726 146.886 908.62 145.843 893.868 142.712C878.861 139.516 864.546 133.887 850.683 127.312C837.2 120.916 824.116 113.703 810.723 107.128C810.866 106.699 811.008 106.269 811.146 105.835C825.75 112.979 840.055 120.853 854.829 127.66C868.75 134.076 883.159 139.309 898.228 142.109C913.264 144.883 928.608 145.494 943.812 143.924C972.982 140.94 1002.66 130.001 1025.08 110.43C1029.29 106.756 1033.18 102.722 1036.72 98.3713C1036.96 98.8154 1037.2 99.2596 1037.44 99.7037Z" fill="white"/>
<path d="M1052.07 141.274C1045.55 153.019 1036.35 163.379 1025.82 171.59C1002.41 189.839 972.758 199.735 943.508 201.811C928.475 202.885 913.369 201.842 898.618 198.711C883.61 195.516 869.296 189.887 855.433 183.312C841.318 176.616 827.635 169.022 813.582 162.201C799.543 155.384 785.115 149.572 769.998 145.768C771.105 145.57 772.178 145.353 773.223 145.107C774.211 145.367 775.195 145.638 776.177 145.918C805.736 154.317 831.824 170.871 859.579 183.659C873.499 190.075 887.908 195.308 902.977 198.108C918.013 200.883 933.358 201.494 948.561 199.923C977.731 196.94 1007.4 186.001 1029.83 166.43C1038.71 158.717 1046.1 149.403 1051.65 138.956C1051.8 139.729 1051.94 140.501 1052.07 141.274Z" fill="white"/>
<path d="M1020.07 35.8644C1018.85 35.9641 1017.63 35.6946 1016.57 35.0901C1015.5 34.4856 1014.63 33.5732 1014.08 32.4683C1013.52 31.3634 1013.3 30.1156 1013.44 28.8827C1013.58 27.6498 1014.08 26.4872 1014.87 25.5419C1015.66 24.5965 1016.71 23.911 1017.89 23.5718C1019.06 23.2327 1020.31 23.2553 1021.47 23.6367C1022.63 24.018 1023.66 24.7411 1024.41 25.7145C1025.17 26.6878 1025.63 27.8677 1025.73 29.1049C1025.86 30.764 1025.34 32.4082 1024.28 33.6758C1023.21 34.9435 1021.7 35.7307 1020.07 35.8644ZM1019.99 34.902C1021.02 34.8177 1022 34.4248 1022.82 33.773C1023.63 33.1213 1024.23 32.24 1024.54 31.2405C1024.86 30.241 1024.88 29.1683 1024.6 28.158C1024.32 27.1477 1023.75 26.2452 1022.96 25.5645C1022.17 24.8839 1021.2 24.4558 1020.18 24.3342C1019.15 24.2127 1018.11 24.4033 1017.19 24.8818C1016.27 25.3603 1015.51 26.1054 1015.01 27.0227C1014.51 27.94 1014.28 28.9884 1014.37 30.0353C1014.42 30.7304 1014.61 31.4076 1014.92 32.0284C1015.24 32.6492 1015.67 33.2013 1016.19 33.6532C1016.71 34.1051 1017.32 34.448 1017.97 34.6623C1018.62 34.8765 1019.31 34.958 1019.99 34.902V34.902Z" fill="#CCCCCC"/>
<path d="M991.059 159.391C990.386 160.427 989.426 161.236 988.3 161.717C987.174 162.198 985.933 162.329 984.734 162.093C983.536 161.857 982.433 161.265 981.565 160.392C980.697 159.519 980.103 158.404 979.859 157.188C979.614 155.972 979.73 154.709 980.192 153.56C980.653 152.411 981.439 151.426 982.451 150.732C983.463 150.037 984.655 149.662 985.876 149.656C987.097 149.65 988.293 150.011 989.311 150.696C990.676 151.614 991.627 153.046 991.954 154.676C992.282 156.306 991.96 158.002 991.059 159.391ZM981.549 153.004C980.98 153.88 980.678 154.909 980.684 155.959C980.689 157.009 981.001 158.034 981.579 158.905C982.157 159.775 982.977 160.451 983.933 160.848C984.89 161.245 985.941 161.345 986.953 161.135C987.966 160.924 988.894 160.414 989.621 159.667C990.348 158.921 990.84 157.972 991.037 156.941C991.233 155.91 991.124 154.843 990.724 153.874C990.324 152.906 989.65 152.08 988.788 151.501C987.631 150.726 986.22 150.45 984.863 150.731C983.506 151.013 982.314 151.83 981.549 153.004Z" fill="#CCCCCC"/>
<path d="M998.455 182.472C1000.55 182.472 1002.25 180.743 1002.25 178.61C1002.25 176.477 1000.55 174.748 998.455 174.748C996.357 174.748 994.656 176.477 994.656 178.61C994.656 180.743 996.357 182.472 998.455 182.472Z" fill="#CCCCCC"/>
<path d="M1009.05 200.426C1010.16 200.426 1011.05 199.518 1011.05 198.397C1011.05 197.277 1010.16 196.369 1009.05 196.369C1007.95 196.369 1007.06 197.277 1007.06 198.397C1007.06 199.518 1007.95 200.426 1009.05 200.426Z" fill="#CCCCCC"/>
<path d="M837.754 53.9886C837.211 52.877 837.004 51.6266 837.16 50.3955C837.315 49.1644 837.827 48.0079 838.629 47.0722C839.431 46.1365 840.489 45.4636 841.667 45.1387C842.846 44.8138 844.093 44.8515 845.25 45.2469C846.408 45.6423 847.424 46.3777 848.17 47.3601C848.916 48.3425 849.359 49.5279 849.443 50.7662C849.526 52.0045 849.247 53.2402 848.64 54.317C848.032 55.3939 847.124 56.2634 846.031 56.8158C844.564 57.5546 842.869 57.6719 841.317 57.1418C839.766 56.6118 838.484 55.4778 837.754 53.9886ZM847.962 48.8325C847.502 47.892 846.778 47.1112 845.882 46.5888C844.985 46.0664 843.957 45.826 842.926 45.8979C841.895 45.9697 840.908 46.3507 840.09 46.9926C839.273 47.6345 838.66 48.5085 838.331 49.5041C838.002 50.4996 837.971 51.5721 838.241 52.5857C838.512 53.5994 839.072 54.5087 839.851 55.1988C840.63 55.8889 841.592 56.3287 842.617 56.4626C843.642 56.5966 844.683 56.4186 845.608 55.9512C846.848 55.3232 847.792 54.2211 848.233 52.8865C848.674 51.552 848.577 50.094 847.962 48.8325Z" fill="#CCCCCC"/>
<path d="M817.689 54.7095C819.787 54.7095 821.488 52.9804 821.488 50.8475C821.488 48.7146 819.787 46.9855 817.689 46.9855C815.59 46.9855 813.889 48.7146 813.889 50.8475C813.889 52.9804 815.59 54.7095 817.689 54.7095Z" fill="#CCCCCC"/>
<path d="M795.532 52.2646C796.635 52.2646 797.528 51.3564 797.528 50.236C797.528 49.1155 796.635 48.2073 795.532 48.2073C794.43 48.2073 793.537 49.1155 793.537 50.236C793.537 51.3564 794.43 52.2646 795.532 52.2646Z" fill="#CCCCCC"/>
</g>
</svg>
