<svg width="1003" height="479" viewBox="0 0 1003 479" fill="none" xmlns="http://www.w3.org/2000/svg">
<g style="mix-blend-mode:lighten">
<circle cx="718.5" cy="321.5" r="2.5" fill="#E2E2E2"/>
</g>
<g style="mix-blend-mode:lighten">
<circle cx="2.5" cy="61.5" r="2.5" fill="#E2E2E2"/>
</g>
<g style="mix-blend-mode:lighten">
<circle cx="827.5" cy="396.5" r="2.5" fill="#E2E2E2"/>
</g>
<g style="mix-blend-mode:lighten">
<circle cx="825.5" cy="166.5" r="2.5" fill="#E2E2E2"/>
</g>
<g style="mix-blend-mode:lighten">
<circle cx="1000.5" cy="7.5" r="2.5" fill="#E2E2E2"/>
</g>
<g style="mix-blend-mode:lighten">
<circle cx="237.5" cy="56.5" r="2.5" fill="#E2E2E2"/>
</g>
<g style="mix-blend-mode:lighten">
<circle cx="307.5" cy="214.5" r="2.5" fill="#E2E2E2"/>
</g>
<g style="mix-blend-mode:lighten">
<circle cx="193.5" cy="435.5" r="2.5" fill="#E2E2E2"/>
</g>
<g style="mix-blend-mode:lighten">
<circle cx="363.5" cy="476.5" r="2.5" fill="#E2E2E2"/>
</g>
<g style="mix-blend-mode:lighten">
<circle cx="496.5" cy="225.5" r="2.5" fill="#E2E2E2"/>
</g>
<g style="mix-blend-mode:lighten">
<circle cx="635.5" cy="171.5" r="2.5" fill="#E2E2E2"/>
</g>
<g style="mix-blend-mode:lighten">
<circle cx="682.5" cy="27.5" r="2.5" fill="#E2E2E2"/>
</g>
<g style="mix-blend-mode:lighten">
<circle cx="25.5" cy="281.5" r="2.5" fill="#E2E2E2"/>
</g>
<g style="mix-blend-mode:lighten">
<circle cx="548.5" cy="429.5" r="2.5" fill="#E2E2E2"/>
</g>
<g style="mix-blend-mode:lighten">
<circle cx="198.5" cy="137.5" r="2.5" fill="#E2E2E2"/>
</g>
<g style="mix-blend-mode:lighten">
<circle cx="98.5" cy="2.5" r="2.5" fill="#E2E2E2"/>
</g>
<g style="mix-blend-mode:lighten">
<circle cx="98.5" cy="355.5" r="2.5" fill="#E2E2E2"/>
</g>
<g style="mix-blend-mode:lighten">
<circle cx="972.5" cy="185.5" r="2.5" fill="#E2E2E2"/>
</g>
<g style="mix-blend-mode:lighten">
<circle cx="945.5" cy="276.5" r="2.5" fill="#E2E2E2"/>
</g>
<g style="mix-blend-mode:lighten">
<circle cx="977.5" cy="456.5" r="2.5" fill="#E2E2E2"/>
</g>
<g style="mix-blend-mode:lighten">
<circle cx="872.5" cy="52.5" r="2.5" fill="#E2E2E2"/>
</g>
<g style="mix-blend-mode:lighten">
<circle cx="457.5" cy="77.5" r="2.5" fill="#E2E2E2"/>
</g>
</svg>
