<svg width="72" height="82" viewBox="0 0 72 82" fill="none" xmlns="http://www.w3.org/2000/svg">
<path d="M0 0H72V82H0V0Z" fill="#F0DB4F"/>
<path d="M66.1072 62.4432C65.5802 58.7017 63.438 55.5605 57.0935 52.6297C54.8897 51.4761 52.4327 50.6499 51.7004 48.7479C51.4403 47.6411 51.4061 47.0175 51.5703 46.3472C52.0426 44.1724 54.3217 43.4943 56.1285 44.1179C57.292 44.5622 58.3939 45.5834 59.0578 47.2124C62.165 44.9208 62.1582 44.9363 64.3277 43.3619C63.5338 41.9588 63.1095 41.3118 62.5893 40.7117C60.7209 38.3343 58.1749 37.1105 54.1026 37.2041C53.3977 37.3054 52.686 37.4145 51.981 37.5159C49.9483 38.1005 48.0114 39.3164 46.8753 40.9455C43.4669 45.3495 44.4388 53.0584 48.5863 56.2309C52.6722 59.7229 58.6745 60.518 59.441 63.7839C60.1871 67.7826 56.8609 69.0764 53.5551 68.6166C51.1186 68.0398 49.7636 66.629 48.2988 64.0645C45.6023 65.8417 45.6023 65.8417 42.8305 67.6579C43.4875 69.2948 44.1787 70.0353 45.2807 71.4539C50.4959 77.4792 63.5475 77.183 65.8883 68.0632C65.984 67.7514 66.6137 65.6624 66.1072 62.4432ZM39.1414 37.6873H32.4068C32.4068 44.3128 32.3795 50.8915 32.3795 57.5169C32.3795 61.7339 32.5712 65.6 31.9689 66.7848C30.9833 69.1153 28.4305 68.827 27.267 68.3748C26.083 67.7123 25.4807 66.7691 24.7826 65.4363C24.5909 65.0544 24.4472 64.7582 24.3992 64.7348C22.5719 66.0053 20.7513 67.2836 18.924 68.5542C19.8343 70.6822 21.1757 72.5295 22.8935 73.7298C25.4601 75.4836 28.9095 76.0214 32.5164 75.0783C34.8639 74.2988 36.8897 72.6854 37.9506 70.2301C39.4836 67.0109 39.1551 63.1135 39.1414 58.8031C39.1757 51.7723 39.1414 44.7415 39.1414 37.6873Z" fill="#323330"/>
</svg>
