<svg width="267" height="273" viewBox="0 0 267 273" fill="none" xmlns="http://www.w3.org/2000/svg">
<g clip-path="url(#clip0)">
<path d="M267 136.5C267.024 154.978 263.366 173.267 256.249 190.252L255.807 191.294C243.768 219.296 222.894 242.362 196.522 256.803C170.15 271.244 139.803 276.226 110.335 270.952C109.533 270.807 108.733 270.656 107.934 270.5C99.676 268.863 91.5899 266.425 83.7851 263.219C82.5172 262.698 81.2586 262.158 80.0092 261.599C79.156 261.22 78.3029 260.828 77.4576 260.424C54.3358 249.467 34.7594 231.98 21.0359 210.023C7.31228 188.067 0.0135738 162.557 0 136.5C0 61.114 59.7709 0 133.5 0C207.229 0 267 61.114 267 136.5Z" fill="#3F8BD1"/>
<path opacity="0.2" d="M110.335 270.953C109.533 270.807 108.733 270.656 107.934 270.5C107.412 255.029 105.623 223.274 99.5207 190.018C96.1832 171.816 91.5502 153.159 85.124 136.48C82.9225 130.709 80.4079 125.068 77.5919 119.583C71.0986 107.043 63.2229 96.4869 53.6725 89.3348L55.0786 87.3721C63.0215 93.3248 70.1599 101.682 76.4939 112.443C78.3937 115.666 80.2185 119.104 81.9682 122.757C83.8443 126.666 85.6336 130.817 87.3359 135.208C88.4221 138.002 89.4714 140.894 90.4838 143.882C94.8917 156.858 98.6386 171.663 101.725 188.297C102.408 191.972 103.058 195.738 103.676 199.593C108.459 229.465 109.901 257.084 110.335 270.953Z" fill="black"/>
<path opacity="0.2" d="M80.0091 261.599C79.156 261.22 78.3029 260.828 77.4576 260.424C76.6321 251.257 75.1155 239.885 72.3428 229.09C71.1284 224.242 69.5694 219.49 67.6782 214.874C64.5145 207.302 60.4186 200.865 55.1221 196.895L56.5282 194.937C62.0735 199.088 66.3511 205.651 69.657 213.328C73.3815 221.978 75.8659 232.046 77.5208 241.666C78.7492 248.81 79.5233 255.711 80.0091 261.599Z" fill="black"/>
<path opacity="0.2" d="M40.3904 89.2784C46.9538 89.2784 52.2745 83.8381 52.2745 77.1272C52.2745 70.4163 46.9538 64.9761 40.3904 64.9761C33.827 64.9761 28.5063 70.4163 28.5063 77.1272C28.5063 83.8381 33.827 89.2784 40.3904 89.2784Z" fill="black"/>
<path opacity="0.2" d="M44.2175 193.878C50.7809 193.878 56.1016 188.438 56.1016 181.727C56.1016 175.016 50.7809 169.576 44.2175 169.576C37.6541 169.576 32.3334 175.016 32.3334 181.727C32.3334 188.438 37.6541 193.878 44.2175 193.878Z" fill="black"/>
<path opacity="0.2" d="M87.5706 97.5375C85.0505 112.075 90.6137 125.238 90.6137 125.238C90.6137 125.238 100.263 114.832 102.783 100.294C105.303 85.757 99.7398 72.5937 99.7398 72.5937C99.7398 72.5937 90.0907 83.0001 87.5706 97.5375Z" fill="black"/>
<path opacity="0.2" d="M48.0749 132.046C61.6362 137.116 75.2634 133.863 75.2634 133.863C75.2634 133.863 66.9034 122.388 53.3421 117.318C39.7808 112.248 26.1536 115.501 26.1536 115.501C26.1536 115.501 34.5136 126.976 48.0749 132.046Z" fill="black"/>
<path opacity="0.2" d="M45.7752 224.673C55.2806 228.227 64.8456 225.908 64.8456 225.908C64.8456 225.908 58.9994 217.828 49.4941 214.274C39.9887 210.72 30.4237 213.039 30.4237 213.039C30.4237 213.039 36.2699 221.119 45.7752 224.673Z" fill="black"/>
<path d="M133.226 166.727C161.97 166.727 185.271 142.902 185.271 113.513C185.271 84.1228 161.97 60.2977 133.226 60.2977C104.482 60.2977 81.1806 84.1228 81.1806 113.513C81.1806 142.902 104.482 166.727 133.226 166.727Z" fill="#D0CDE1"/>
<path d="M112.896 154.255C112.896 154.255 119.401 185.852 119.401 189.177C119.401 192.503 150.303 207.47 150.303 207.47L177.952 202.481L187.711 172.548C187.711 172.548 171.447 147.603 171.447 137.626L112.896 154.255Z" fill="#D0CDE1"/>
<path d="M256.249 190.252L255.807 191.294C243.768 219.296 222.894 242.362 196.522 256.803C170.149 271.244 139.803 276.226 110.335 270.952C109.533 270.807 108.733 270.656 107.934 270.5C99.676 268.863 91.5899 266.425 83.7851 263.219C82.5172 262.698 81.2586 262.158 80.0092 261.599C79.156 261.22 78.3029 260.828 77.4576 260.424C69.7963 256.795 62.4895 252.43 55.6355 247.388L49.4661 229.09L52.9339 226.384L60.0671 220.815L67.6782 214.874L69.657 213.328L99.5207 190.018L101.725 188.297L117.247 176.182L117.251 176.178C117.251 176.178 134.037 204.144 158.434 195.829C182.832 187.514 182.299 163.671 182.299 163.671L256.249 190.252Z" fill="#2F2E41"/>
<path d="M88.0924 70.6391C88.0924 70.6391 104.617 34.0322 136.288 42.48C167.959 50.9277 185.861 63.5994 187.238 76.271C188.615 88.9426 186.549 107.95 186.549 107.95C186.549 107.95 183.107 81.9028 161.074 87.5347C139.042 93.1665 104.617 88.9426 104.617 88.9426L99.1085 139.629C99.1085 139.629 92.9119 130.477 86.0269 136.109C79.1418 141.741 66.0601 81.9028 88.0924 70.6391Z" fill="#2F2E41"/>
<path d="M83.7851 263.219C82.5172 262.698 81.2586 262.158 80.0092 261.599C79.156 261.22 78.3029 260.828 77.4576 260.424C64.7866 254.417 53.1135 246.418 42.8622 236.718C46.492 231.662 49.4661 229.09 49.4661 229.09H73.8634L77.5208 241.666L83.7851 263.219Z" fill="#2F2E41"/>
<path d="M234.877 187.514L255.807 191.294C250.206 204.34 242.641 216.409 233.388 227.063L234.877 187.514Z" fill="#2F2E41"/>
</g>
<defs>
<clipPath id="clip0">
<rect width="267" height="273" fill="white"/>
</clipPath>
</defs>
</svg>
